<svg xmlns="http://www.w3.org/2000/svg" width="1158" height="480" viewBox="0 0 1158 480">
  <g id="grupocerto" transform="translate(117 -2256)">
    <g id="user" transform="translate(213 2256)">
      <g id="Grupo_2" data-name="Grupo 2">
        <path id="Caminho_26" data-name="Caminho 26" d="M437.02,310.294a258.01,258.01,0,0,0-97.281-57.2C378.521,228.048,404,186.139,404,138.75,404,62.243,337.607,0,256,0S108,62.243,108,138.75c0,47.389,25.479,89.3,64.262,114.339a258.01,258.01,0,0,0-97.281,57.2C26.629,355.625,0,415.894,0,480H40c0-111.659,96.9-202.5,216-202.5S472,368.341,472,480h40C512,415.894,485.371,355.625,437.02,310.294ZM256,240c-59.551,0-108-45.42-108-101.25S196.449,37.5,256,37.5,364,82.92,364,138.75,315.551,240,256,240Z" transform="translate(0)" fill="#d95043"/>
      </g>
    </g>
    <g id="user-2" data-name="user" transform="translate(603.117 2256)">
      <g id="Grupo_2-2" data-name="Grupo 2">
        <path id="Caminho_26-2" data-name="Caminho 26" d="M437.02,310.294a258.01,258.01,0,0,0-97.281-57.2C378.521,228.048,404,186.139,404,138.75,404,62.243,337.607,0,256,0S108,62.243,108,138.75c0,47.389,25.479,89.3,64.262,114.339a258.01,258.01,0,0,0-97.281,57.2c-5.415,5.077,16.523,1.7,13.39,4.2-22.713,18.115,0-31.8,0,25.125V325.655c0-35.4,31.762-15.362,31.762-15.362S174.653,277.5,256,277.5c119.1,0,216,90.841,216,202.5h40C512,415.894,485.371,355.625,437.02,310.294ZM256,240c-59.551,0-108-45.42-108-101.25S196.449,37.5,256,37.5,364,82.92,364,138.75,315.551,240,256,240Z" transform="translate(-74.117)" fill="#d95043"/>
      </g>
    </g>
    <g id="user-3" data-name="user" transform="translate(-117 2256)">
      <g id="Grupo_2-3" data-name="Grupo 2">
        <path id="Caminho_26-3" data-name="Caminho 26" d="M437.02,310.294a256.432,256.432,0,0,0-47.334-35.067,260.371,260.371,0,0,0-49.947-22.137C378.521,228.048,404,186.139,404,138.75,404,62.243,337.607,0,256,0S108,62.243,108,138.75c0,47.389,25.479,89.3,64.262,114.339a258.01,258.01,0,0,0-97.281,57.2C26.629,355.625,0,415.894,0,480H40c0-111.659,96.9-202.5,216-202.5,61.457,0,120.047,27.683,120.047,27.683L399.867,321s-8.932,33.169-8.932,58.624L404,326.585C404,262.479,485.371,355.625,437.02,310.294ZM256,240c-59.551,0-108-45.42-108-101.25S196.449,37.5,256,37.5,364,82.92,364,138.75,315.551,240,256,240Z" transform="translate(0)" fill="#d95043"/>
      </g>
    </g>
  </g>
</svg>
