<svg xmlns="http://www.w3.org/2000/svg" width="1158" height="512" viewBox="0 0 1158 512">
  <g id="grupo" transform="translate(117 -2256)">
    <g id="user" transform="translate(213 2256)">
      <g id="Grupo_2" data-name="Grupo 2">
        <path id="Caminho_26" data-name="Caminho 26" d="M437.02,330.98a255.018,255.018,0,0,0-97.281-61.018A147.947,147.947,0,0,0,404,148C404,66.393,337.607,0,256,0S108,66.393,108,148a147.945,147.945,0,0,0,64.262,121.962A256.4,256.4,0,0,0,0,512H40c0-119.1,96.9-216,216-216s216,96.9,216,216h40A254.331,254.331,0,0,0,437.02,330.98ZM256,256A108,108,0,1,1,364,148,108.122,108.122,0,0,1,256,256Z" fill="#d95043"/>
      </g>
    </g>
    <g id="user-2" data-name="user" transform="translate(529 2256)">
      <g id="Grupo_2-2" data-name="Grupo 2">
        <path id="Caminho_26-2" data-name="Caminho 26" d="M437.02,330.98a255.018,255.018,0,0,0-97.281-61.018A147.947,147.947,0,0,0,404,148C404,66.393,337.607,0,256,0S108,66.393,108,148a147.945,147.945,0,0,0,64.262,121.962A255.018,255.018,0,0,0,74.981,330.98c-5.415,5.416,16.523,1.81,13.39,4.475-22.713,19.323,0-33.922,0,26.8V347.366c0-37.756,31.762-16.386,31.762-16.386S174.653,296,256,296c119.1,0,216,96.9,216,216h40A254.331,254.331,0,0,0,437.02,330.98ZM256,256A108,108,0,1,1,364,148,108.122,108.122,0,0,1,256,256Z" fill="#d95043"/>
      </g>
    </g>
    <g id="user-3" data-name="user" transform="translate(-117 2256)">
      <g id="Grupo_2-3" data-name="Grupo 2">
        <path id="Caminho_26-3" data-name="Caminho 26" d="M437.02,330.98a258.252,258.252,0,0,0-47.334-37.405,252.5,252.5,0,0,0-49.947-23.613A147.947,147.947,0,0,0,404,148C404,66.393,337.607,0,256,0S108,66.393,108,148a147.945,147.945,0,0,0,64.262,121.962A256.4,256.4,0,0,0,0,512H40c0-119.1,96.9-216,216-216,61.457,0,120.047,29.529,120.047,29.529l23.82,16.874s-8.932,35.38-8.932,62.532L404,348.358C404,279.978,485.371,379.333,437.02,330.98ZM256,256A108,108,0,1,1,364,148,108.122,108.122,0,0,1,256,256Z" fill="#d95043"/>
      </g>
    </g>
  </g>
</svg>
