<svg id="Grupo_3" data-name="Grupo 3" xmlns="http://www.w3.org/2000/svg" width="480.001" height="480" viewBox="0 0 480.001 480">
  <path id="Caminho_27" data-name="Caminho 27" d="M472,0H112a8,8,0,0,0-8,8V128h16V16H464V456a7.873,7.873,0,0,1-7.368,8c-.688,0-1.376-.056-2.064-.072-1.416-.04-2.832-.072-4.224-.216a.893.893,0,0,1-.352-.048,56.079,56.079,0,0,1-49.648-49.6,2.568,2.568,0,0,0-.056-.344A55.759,55.759,0,0,1,400,408V392a8,8,0,0,0-8-8H120V240H104V384H40a8,8,0,0,0-8,8v16a72.08,72.08,0,0,0,72,72H456.8A23.824,23.824,0,0,0,480,456V8A8,8,0,0,0,472,0ZM104,464a56.064,56.064,0,0,1-56-56v-8H384v8a73.873,73.873,0,0,0,.456,7.9c.072.7.208,1.368.3,2.056.264,1.936.584,3.864,1.008,5.76.144.664.328,1.32.5,1.984.488,1.928,1.04,3.824,1.68,5.7.184.536.376,1.064.576,1.6.728,1.984,1.552,3.92,2.456,5.832.192.392.368.8.56,1.16a67.511,67.511,0,0,0,3.3,5.912c.16.256.3.52.464.8a71.826,71.826,0,0,0,4.216,5.92l.256.344a73.74,73.74,0,0,0,5.6,6.264,70.531,70.531,0,0,0,5.36,4.8Z" fill="#d95043"/>
  <path id="Caminho_28" data-name="Caminho 28" d="M264,224a8,8,0,0,0,5.656-2.344l32-32a8,8,0,0,0,0-11.312l-32-32A8,8,0,0,0,264,144H40a40,40,0,0,0,0,80H264Zm-2.064-62.752L284.688,184l-22.752,22.752L256.248,184ZM64,160H245.76l-4,16H80v16H241.76l4,16H64ZM16,184a24,24,0,0,1,24-24h8v48H40A24,24,0,0,1,16,184Z" fill="#d95043"/>
  <path id="Caminho_29" data-name="Caminho 29" d="M184,344H424a8,8,0,0,0,8-8V96a8,8,0,0,0-13.656-5.656l-240,240A8,8,0,0,0,184,344ZM416,115.312V136H400v16h16v16H400v16h16v16H400v16h16v16H400v16h16v16H400v16h16v16H400v16h16v16H400V312H384v16H368V312H352v16H336V312H320v16H304V312H288v16H272V312H256v16H240V312H224v16H203.312Z" fill="#d95043"/>
  <path id="Caminho_30" data-name="Caminho 30" d="M299.88,296H376a8,8,0,0,0,8-8V211.88a8,8,0,0,0-13.656-5.656l-76.12,76.12A8,8,0,0,0,299.88,296ZM368,231.2V280H319.2Z" fill="#d95043"/>
  <rect id="Retângulo_30" data-name="Retângulo 30" width="160" height="16" transform="translate(208 48)" fill="#d95043"/>
  <rect id="Retângulo_31" data-name="Retângulo 31" width="208" height="16" transform="translate(184 80)" fill="#d95043"/>
  <rect id="Retângulo_32" data-name="Retângulo 32" width="48" height="16" transform="translate(136 248)" fill="#d95043"/>
  <rect id="Retângulo_33" data-name="Retângulo 33" width="32" height="16" transform="translate(136 280)" fill="#d95043"/>
</svg>
